<mxfile host="Electron" modified="2023-05-10T09:20:23.069Z" agent="Mozilla/5.0 (Windows NT 10.0; Win64; x64) AppleWebKit/537.36 (KHTML, like Gecko) draw.io/21.2.8 Chrome/112.0.5615.165 Electron/24.2.0 Safari/537.36" etag="zBWcNjo2-fdK8evIIUr1" version="21.2.8" type="device">
  <diagram id="C5RBs43oDa-KdzZeNtuy" name="Page-1">
    <mxGraphModel dx="1843" dy="619" grid="1" gridSize="10" guides="1" tooltips="1" connect="1" arrows="1" fold="1" page="1" pageScale="1" pageWidth="827" pageHeight="1169" math="0" shadow="0">
      <root>
        <mxCell id="WIyWlLk6GJQsqaUBKTNV-0" />
        <mxCell id="WIyWlLk6GJQsqaUBKTNV-1" parent="WIyWlLk6GJQsqaUBKTNV-0" />
        <mxCell id="Qc7WhJj-bPQKoWYA3_jL-60" value="" style="edgeStyle=orthogonalEdgeStyle;rounded=0;orthogonalLoop=1;jettySize=auto;html=1;" edge="1" parent="WIyWlLk6GJQsqaUBKTNV-1" source="Qc7WhJj-bPQKoWYA3_jL-61" target="Qc7WhJj-bPQKoWYA3_jL-63">
          <mxGeometry relative="1" as="geometry" />
        </mxCell>
        <mxCell id="Qc7WhJj-bPQKoWYA3_jL-61" value="Inicio" style="rounded=1;whiteSpace=wrap;html=1;" vertex="1" parent="WIyWlLk6GJQsqaUBKTNV-1">
          <mxGeometry x="541" y="19" width="120" height="60" as="geometry" />
        </mxCell>
        <mxCell id="Qc7WhJj-bPQKoWYA3_jL-62" value="" style="edgeStyle=orthogonalEdgeStyle;rounded=0;orthogonalLoop=1;jettySize=auto;html=1;" edge="1" parent="WIyWlLk6GJQsqaUBKTNV-1" source="Qc7WhJj-bPQKoWYA3_jL-63" target="Qc7WhJj-bPQKoWYA3_jL-118">
          <mxGeometry relative="1" as="geometry" />
        </mxCell>
        <mxCell id="Qc7WhJj-bPQKoWYA3_jL-63" value="&lt;div style=&quot;text-align: left;&quot;&gt;&lt;span style=&quot;background-color: initial;&quot;&gt;Inicializar sensores el sistema(RFID,módulo balanza, botones,puerta cerrada)&lt;/span&gt;&lt;/div&gt;&lt;div style=&quot;text-align: left;&quot;&gt;&lt;span style=&quot;background-color: initial;&quot;&gt;_Iniciar tiempo&lt;/span&gt;&lt;/div&gt;&lt;div style=&quot;text-align: left;&quot;&gt;&lt;span style=&quot;background-color: initial;&quot;&gt;_Botón Menú-Enter&lt;/span&gt;&lt;/div&gt;&lt;div style=&quot;text-align: left;&quot;&gt;&lt;span style=&quot;background-color: initial;&quot;&gt;_Botón Selector&lt;/span&gt;&lt;/div&gt;" style="whiteSpace=wrap;html=1;aspect=fixed;" vertex="1" parent="WIyWlLk6GJQsqaUBKTNV-1">
          <mxGeometry x="541" y="99" width="120" height="120" as="geometry" />
        </mxCell>
        <mxCell id="Qc7WhJj-bPQKoWYA3_jL-64" value="No" style="edgeStyle=orthogonalEdgeStyle;rounded=0;orthogonalLoop=1;jettySize=auto;html=1;entryX=0;entryY=0.5;entryDx=0;entryDy=0;entryPerimeter=0;" edge="1" parent="WIyWlLk6GJQsqaUBKTNV-1" source="Qc7WhJj-bPQKoWYA3_jL-66" target="Qc7WhJj-bPQKoWYA3_jL-68">
          <mxGeometry relative="1" as="geometry">
            <mxPoint x="723.9999999999998" y="902.86" as="targetPoint" />
          </mxGeometry>
        </mxCell>
        <mxCell id="Qc7WhJj-bPQKoWYA3_jL-148" value="Sí" style="edgeStyle=orthogonalEdgeStyle;rounded=0;orthogonalLoop=1;jettySize=auto;html=1;" edge="1" parent="WIyWlLk6GJQsqaUBKTNV-1" source="Qc7WhJj-bPQKoWYA3_jL-66" target="Qc7WhJj-bPQKoWYA3_jL-147">
          <mxGeometry relative="1" as="geometry" />
        </mxCell>
        <mxCell id="Qc7WhJj-bPQKoWYA3_jL-66" value="Bovino presente?" style="strokeWidth=2;html=1;shape=mxgraph.flowchart.decision;whiteSpace=wrap;" vertex="1" parent="WIyWlLk6GJQsqaUBKTNV-1">
          <mxGeometry x="551" y="783.86" width="100" height="100" as="geometry" />
        </mxCell>
        <mxCell id="Qc7WhJj-bPQKoWYA3_jL-154" style="edgeStyle=orthogonalEdgeStyle;rounded=0;orthogonalLoop=1;jettySize=auto;html=1;entryX=0.262;entryY=0.622;entryDx=0;entryDy=0;entryPerimeter=0;" edge="1" parent="WIyWlLk6GJQsqaUBKTNV-1" source="Qc7WhJj-bPQKoWYA3_jL-68" target="Qc7WhJj-bPQKoWYA3_jL-152">
          <mxGeometry relative="1" as="geometry" />
        </mxCell>
        <mxCell id="Qc7WhJj-bPQKoWYA3_jL-68" value="Aviso!&lt;br&gt;Bovino Ausente" style="strokeWidth=2;html=1;shape=mxgraph.flowchart.document2;whiteSpace=wrap;size=0.25;align=center;" vertex="1" parent="WIyWlLk6GJQsqaUBKTNV-1">
          <mxGeometry x="746.5" y="803.86" width="100" height="60" as="geometry" />
        </mxCell>
        <mxCell id="Qc7WhJj-bPQKoWYA3_jL-71" value="No" style="edgeStyle=orthogonalEdgeStyle;rounded=0;orthogonalLoop=1;jettySize=auto;html=1;entryX=0.5;entryY=0;entryDx=0;entryDy=0;" edge="1" parent="WIyWlLk6GJQsqaUBKTNV-1" source="Qc7WhJj-bPQKoWYA3_jL-72" target="Qc7WhJj-bPQKoWYA3_jL-91">
          <mxGeometry relative="1" as="geometry">
            <mxPoint x="610" y="1792.86" as="targetPoint" />
          </mxGeometry>
        </mxCell>
        <mxCell id="Qc7WhJj-bPQKoWYA3_jL-145" value="" style="edgeStyle=orthogonalEdgeStyle;rounded=0;orthogonalLoop=1;jettySize=auto;html=1;" edge="1" parent="WIyWlLk6GJQsqaUBKTNV-1" source="Qc7WhJj-bPQKoWYA3_jL-72" target="Qc7WhJj-bPQKoWYA3_jL-140">
          <mxGeometry relative="1" as="geometry" />
        </mxCell>
        <mxCell id="Qc7WhJj-bPQKoWYA3_jL-146" value="Sí" style="edgeLabel;html=1;align=center;verticalAlign=middle;resizable=0;points=[];" vertex="1" connectable="0" parent="Qc7WhJj-bPQKoWYA3_jL-145">
          <mxGeometry x="-0.2584" y="3" relative="1" as="geometry">
            <mxPoint as="offset" />
          </mxGeometry>
        </mxCell>
        <mxCell id="Qc7WhJj-bPQKoWYA3_jL-72" value="Bovino presente?" style="strokeWidth=2;html=1;shape=mxgraph.flowchart.decision;whiteSpace=wrap;" vertex="1" parent="WIyWlLk6GJQsqaUBKTNV-1">
          <mxGeometry x="551" y="1630" width="100" height="100" as="geometry" />
        </mxCell>
        <mxCell id="Qc7WhJj-bPQKoWYA3_jL-79" value="1.Calibrar balanza&lt;br style=&quot;border-color: var(--border-color); font-size: 11px;&quot;&gt;&lt;span style=&quot;border-color: var(--border-color); font-size: 11px;&quot;&gt;2.Ver historial de alimentación de bovino&lt;br style=&quot;border-color: var(--border-color);&quot;&gt;&lt;/span&gt;&lt;span style=&quot;&quot;&gt;3_Otros&lt;/span&gt;&lt;br style=&quot;border-color: var(--border-color); font-size: 11px;&quot;&gt;&lt;span style=&quot;border-color: var(--border-color); font-size: 11px;&quot;&gt;4_Salir&lt;/span&gt;" style="strokeWidth=2;html=1;shape=mxgraph.flowchart.document2;whiteSpace=wrap;size=0.13333333333333333;align=left;" vertex="1" parent="WIyWlLk6GJQsqaUBKTNV-1">
          <mxGeometry x="180" y="490" width="120" height="90" as="geometry" />
        </mxCell>
        <mxCell id="Qc7WhJj-bPQKoWYA3_jL-81" value="No" style="edgeStyle=orthogonalEdgeStyle;rounded=0;orthogonalLoop=1;jettySize=auto;html=1;entryX=0.5;entryY=0;entryDx=0;entryDy=0;entryPerimeter=0;" edge="1" parent="WIyWlLk6GJQsqaUBKTNV-1" target="Qc7WhJj-bPQKoWYA3_jL-108">
          <mxGeometry relative="1" as="geometry">
            <mxPoint x="323" y="494.86" as="targetPoint" />
            <Array as="points">
              <mxPoint x="300" y="644.86" />
              <mxPoint x="300" y="433.86" />
              <mxPoint x="230" y="433.86" />
            </Array>
            <mxPoint x="280" y="643.9411764705883" as="sourcePoint" />
          </mxGeometry>
        </mxCell>
        <mxCell id="Qc7WhJj-bPQKoWYA3_jL-170" value="" style="edgeStyle=orthogonalEdgeStyle;rounded=0;orthogonalLoop=1;jettySize=auto;html=1;" edge="1" parent="WIyWlLk6GJQsqaUBKTNV-1" source="Qc7WhJj-bPQKoWYA3_jL-86" target="Qc7WhJj-bPQKoWYA3_jL-89">
          <mxGeometry relative="1" as="geometry" />
        </mxCell>
        <mxCell id="Qc7WhJj-bPQKoWYA3_jL-86" value="Compruebe que la bandeja está vacía. Si lo está presione Enter" style="strokeWidth=2;html=1;shape=mxgraph.flowchart.document2;whiteSpace=wrap;size=0.25;align=left;" vertex="1" parent="WIyWlLk6GJQsqaUBKTNV-1">
          <mxGeometry x="375" y="793.86" width="110" height="80" as="geometry" />
        </mxCell>
        <mxCell id="Qc7WhJj-bPQKoWYA3_jL-171" value="Sí" style="edgeStyle=orthogonalEdgeStyle;rounded=0;orthogonalLoop=1;jettySize=auto;html=1;entryX=0.5;entryY=0;entryDx=0;entryDy=0;" edge="1" parent="WIyWlLk6GJQsqaUBKTNV-1" source="Qc7WhJj-bPQKoWYA3_jL-89" target="Qc7WhJj-bPQKoWYA3_jL-132">
          <mxGeometry relative="1" as="geometry" />
        </mxCell>
        <mxCell id="Qc7WhJj-bPQKoWYA3_jL-173" value="No" style="edgeStyle=orthogonalEdgeStyle;rounded=0;orthogonalLoop=1;jettySize=auto;html=1;entryX=0.5;entryY=0;entryDx=0;entryDy=0;entryPerimeter=0;" edge="1" parent="WIyWlLk6GJQsqaUBKTNV-1" source="Qc7WhJj-bPQKoWYA3_jL-89" target="Qc7WhJj-bPQKoWYA3_jL-86">
          <mxGeometry x="-0.8483" relative="1" as="geometry">
            <Array as="points">
              <mxPoint x="310" y="960" />
              <mxPoint x="310" y="774" />
              <mxPoint x="430" y="774" />
            </Array>
            <mxPoint x="1" as="offset" />
          </mxGeometry>
        </mxCell>
        <mxCell id="Qc7WhJj-bPQKoWYA3_jL-89" value="Bandeja vacía?" style="strokeWidth=2;html=1;shape=mxgraph.flowchart.decision;whiteSpace=wrap;" vertex="1" parent="WIyWlLk6GJQsqaUBKTNV-1">
          <mxGeometry x="380" y="910" width="100" height="100" as="geometry" />
        </mxCell>
        <mxCell id="Qc7WhJj-bPQKoWYA3_jL-164" style="edgeStyle=orthogonalEdgeStyle;rounded=0;orthogonalLoop=1;jettySize=auto;html=1;entryX=0.585;entryY=1.197;entryDx=0;entryDy=0;entryPerimeter=0;" edge="1" parent="WIyWlLk6GJQsqaUBKTNV-1" source="Qc7WhJj-bPQKoWYA3_jL-91" target="Qc7WhJj-bPQKoWYA3_jL-163">
          <mxGeometry relative="1" as="geometry" />
        </mxCell>
        <mxCell id="Qc7WhJj-bPQKoWYA3_jL-91" value="&lt;div style=&quot;text-align: left;&quot;&gt;&lt;span style=&quot;background-color: initial;&quot;&gt;1_Cerrar puerta&lt;/span&gt;&lt;/div&gt;&lt;div style=&quot;text-align: left;&quot;&gt;&lt;span style=&quot;background-color: initial;&quot;&gt;2_Medir alimento&amp;nbsp; sobrante en kg&lt;/span&gt;&lt;/div&gt;&lt;div style=&quot;text-align: left;&quot;&gt;&lt;span style=&quot;background-color: initial;&quot;&gt;3_Guardar N°bovino, kg de alimento comido&lt;/span&gt;&lt;/div&gt;&lt;div style=&quot;text-align: left;&quot;&gt;&lt;span style=&quot;background-color: initial;&quot;&gt;4_Guardar tiempo Día_Mes_Año&lt;/span&gt;&lt;/div&gt;" style="rounded=1;whiteSpace=wrap;html=1;absoluteArcSize=1;arcSize=14;strokeWidth=2;" vertex="1" parent="WIyWlLk6GJQsqaUBKTNV-1">
          <mxGeometry x="535" y="1780" width="132" height="110" as="geometry" />
        </mxCell>
        <mxCell id="Qc7WhJj-bPQKoWYA3_jL-139" value="" style="edgeStyle=orthogonalEdgeStyle;rounded=0;orthogonalLoop=1;jettySize=auto;html=1;" edge="1" parent="WIyWlLk6GJQsqaUBKTNV-1" source="Qc7WhJj-bPQKoWYA3_jL-92" target="Qc7WhJj-bPQKoWYA3_jL-138">
          <mxGeometry relative="1" as="geometry" />
        </mxCell>
        <mxCell id="Qc7WhJj-bPQKoWYA3_jL-158" value="" style="edgeStyle=orthogonalEdgeStyle;rounded=0;orthogonalLoop=1;jettySize=auto;html=1;" edge="1" parent="WIyWlLk6GJQsqaUBKTNV-1" source="Qc7WhJj-bPQKoWYA3_jL-92" target="Qc7WhJj-bPQKoWYA3_jL-136">
          <mxGeometry relative="1" as="geometry" />
        </mxCell>
        <mxCell id="Qc7WhJj-bPQKoWYA3_jL-92" value="1_Buscar en memoria alimento necesario para bovino Nº X&lt;br style=&quot;border-color: var(--border-color);&quot;&gt;2_Llenar bandeja en kg de maíz necesario &lt;br&gt;3_Abrir puerta&lt;br&gt;4_Inicio conteo de tiempo" style="rounded=1;whiteSpace=wrap;html=1;absoluteArcSize=1;arcSize=14;strokeWidth=2;align=left;" vertex="1" parent="WIyWlLk6GJQsqaUBKTNV-1">
          <mxGeometry x="551" y="1240" width="100" height="180" as="geometry" />
        </mxCell>
        <mxCell id="Qc7WhJj-bPQKoWYA3_jL-177" style="edgeStyle=orthogonalEdgeStyle;rounded=0;orthogonalLoop=1;jettySize=auto;html=1;entryX=0.997;entryY=0.609;entryDx=0;entryDy=0;entryPerimeter=0;" edge="1" parent="WIyWlLk6GJQsqaUBKTNV-1" source="Qc7WhJj-bPQKoWYA3_jL-96" target="Qc7WhJj-bPQKoWYA3_jL-176">
          <mxGeometry relative="1" as="geometry">
            <Array as="points">
              <mxPoint x="430" y="1340" />
            </Array>
          </mxGeometry>
        </mxCell>
        <mxCell id="Qc7WhJj-bPQKoWYA3_jL-96" value="Calibrado&amp;nbsp; balanza Terminado!" style="strokeWidth=2;html=1;shape=mxgraph.flowchart.document2;whiteSpace=wrap;size=0.25;" vertex="1" parent="WIyWlLk6GJQsqaUBKTNV-1">
          <mxGeometry x="375" y="1230" width="110" height="60" as="geometry" />
        </mxCell>
        <mxCell id="Qc7WhJj-bPQKoWYA3_jL-101" value="&lt;p style=&quot;line-height: 100%;&quot;&gt;&lt;font style=&quot;font-size: 12px;&quot;&gt;Ver&lt;br&gt;Bovino N° 1&lt;br&gt;Bovino N° 2&lt;br&gt;Bovino N° 3&lt;/font&gt;&lt;/p&gt;" style="strokeWidth=2;html=1;shape=mxgraph.flowchart.document2;whiteSpace=wrap;size=0.125;" vertex="1" parent="WIyWlLk6GJQsqaUBKTNV-1">
          <mxGeometry x="-80" y="813.86" width="100" height="60" as="geometry" />
        </mxCell>
        <mxCell id="Qc7WhJj-bPQKoWYA3_jL-104" value="No" style="edgeStyle=orthogonalEdgeStyle;rounded=0;orthogonalLoop=1;jettySize=auto;html=1;entryX=0.5;entryY=0;entryDx=0;entryDy=0;entryPerimeter=0;" edge="1" parent="WIyWlLk6GJQsqaUBKTNV-1" source="Qc7WhJj-bPQKoWYA3_jL-105">
          <mxGeometry x="-0.3394" relative="1" as="geometry">
            <Array as="points">
              <mxPoint x="296.86" y="658.86" />
              <mxPoint x="296.86" y="438.86" />
              <mxPoint x="226.86" y="438.86" />
            </Array>
            <mxPoint as="offset" />
            <mxPoint x="226.86000000000013" y="458.86" as="targetPoint" />
          </mxGeometry>
        </mxCell>
        <mxCell id="Qc7WhJj-bPQKoWYA3_jL-168" style="edgeStyle=orthogonalEdgeStyle;rounded=0;orthogonalLoop=1;jettySize=auto;html=1;entryX=0.5;entryY=0;entryDx=0;entryDy=0;" edge="1" parent="WIyWlLk6GJQsqaUBKTNV-1" source="Qc7WhJj-bPQKoWYA3_jL-118" target="Qc7WhJj-bPQKoWYA3_jL-119">
          <mxGeometry relative="1" as="geometry" />
        </mxCell>
        <mxCell id="Qc7WhJj-bPQKoWYA3_jL-118" value="" style="shape=waypoint;sketch=0;size=6;pointerEvents=1;points=[];fillColor=default;resizable=0;rotatable=0;perimeter=centerPerimeter;snapToPoint=1;strokeWidth=2;" vertex="1" parent="WIyWlLk6GJQsqaUBKTNV-1">
          <mxGeometry x="591" y="270" width="20" height="20" as="geometry" />
        </mxCell>
        <mxCell id="Qc7WhJj-bPQKoWYA3_jL-121" style="edgeStyle=orthogonalEdgeStyle;rounded=0;orthogonalLoop=1;jettySize=auto;html=1;entryX=0.5;entryY=0;entryDx=0;entryDy=0;entryPerimeter=0;" edge="1" parent="WIyWlLk6GJQsqaUBKTNV-1" source="Qc7WhJj-bPQKoWYA3_jL-119" target="Qc7WhJj-bPQKoWYA3_jL-120">
          <mxGeometry relative="1" as="geometry" />
        </mxCell>
        <mxCell id="Qc7WhJj-bPQKoWYA3_jL-123" value="" style="edgeStyle=orthogonalEdgeStyle;rounded=0;orthogonalLoop=1;jettySize=auto;html=1;" edge="1" parent="WIyWlLk6GJQsqaUBKTNV-1" source="Qc7WhJj-bPQKoWYA3_jL-119" target="Qc7WhJj-bPQKoWYA3_jL-122">
          <mxGeometry relative="1" as="geometry" />
        </mxCell>
        <mxCell id="Qc7WhJj-bPQKoWYA3_jL-119" value="&lt;div style=&quot;text-align: center;&quot;&gt;Menú&lt;/div&gt;1_Configuraciones e historial&lt;br&gt;2_Alimentar" style="rounded=1;whiteSpace=wrap;html=1;absoluteArcSize=1;arcSize=14;strokeWidth=2;align=left;" vertex="1" parent="WIyWlLk6GJQsqaUBKTNV-1">
          <mxGeometry x="551" y="323.86" width="100" height="100" as="geometry" />
        </mxCell>
        <mxCell id="Qc7WhJj-bPQKoWYA3_jL-125" value="2" style="edgeStyle=orthogonalEdgeStyle;rounded=0;orthogonalLoop=1;jettySize=auto;html=1;" edge="1" parent="WIyWlLk6GJQsqaUBKTNV-1" source="Qc7WhJj-bPQKoWYA3_jL-120" target="Qc7WhJj-bPQKoWYA3_jL-124">
          <mxGeometry relative="1" as="geometry" />
        </mxCell>
        <mxCell id="Qc7WhJj-bPQKoWYA3_jL-127" value="1" style="edgeStyle=orthogonalEdgeStyle;rounded=0;orthogonalLoop=1;jettySize=auto;html=1;entryX=1;entryY=0.5;entryDx=0;entryDy=0;" edge="1" parent="WIyWlLk6GJQsqaUBKTNV-1" source="Qc7WhJj-bPQKoWYA3_jL-120" target="Qc7WhJj-bPQKoWYA3_jL-126">
          <mxGeometry relative="1" as="geometry" />
        </mxCell>
        <mxCell id="Qc7WhJj-bPQKoWYA3_jL-120" value="Opción?" style="strokeWidth=2;html=1;shape=mxgraph.flowchart.decision;whiteSpace=wrap;" vertex="1" parent="WIyWlLk6GJQsqaUBKTNV-1">
          <mxGeometry x="551" y="485" width="100" height="100" as="geometry" />
        </mxCell>
        <mxCell id="Qc7WhJj-bPQKoWYA3_jL-122" value="&lt;div style=&quot;text-align: center; border-color: var(--border-color);&quot;&gt;Menú&lt;/div&gt;1_Configuraciones e historial&lt;br style=&quot;border-color: var(--border-color);&quot;&gt;&lt;span style=&quot;&quot;&gt;2_Alimentar&lt;/span&gt;" style="strokeWidth=2;html=1;shape=mxgraph.flowchart.document2;whiteSpace=wrap;size=0.25;align=left;" vertex="1" parent="WIyWlLk6GJQsqaUBKTNV-1">
          <mxGeometry x="733.5" y="335.79" width="113" height="76.14" as="geometry" />
        </mxCell>
        <mxCell id="Qc7WhJj-bPQKoWYA3_jL-135" value="" style="edgeStyle=orthogonalEdgeStyle;rounded=0;orthogonalLoop=1;jettySize=auto;html=1;" edge="1" parent="WIyWlLk6GJQsqaUBKTNV-1" source="Qc7WhJj-bPQKoWYA3_jL-124" target="Qc7WhJj-bPQKoWYA3_jL-66">
          <mxGeometry relative="1" as="geometry" />
        </mxCell>
        <mxCell id="Qc7WhJj-bPQKoWYA3_jL-124" value="Leer sensor RFID&amp;nbsp;" style="rounded=1;whiteSpace=wrap;html=1;absoluteArcSize=1;arcSize=14;strokeWidth=2;align=center;" vertex="1" parent="WIyWlLk6GJQsqaUBKTNV-1">
          <mxGeometry x="551" y="640" width="100" height="100" as="geometry" />
        </mxCell>
        <mxCell id="Qc7WhJj-bPQKoWYA3_jL-128" style="edgeStyle=orthogonalEdgeStyle;rounded=0;orthogonalLoop=1;jettySize=auto;html=1;entryX=1;entryY=0.5;entryDx=0;entryDy=0;entryPerimeter=0;" edge="1" parent="WIyWlLk6GJQsqaUBKTNV-1" source="Qc7WhJj-bPQKoWYA3_jL-126" target="Qc7WhJj-bPQKoWYA3_jL-79">
          <mxGeometry relative="1" as="geometry" />
        </mxCell>
        <mxCell id="Qc7WhJj-bPQKoWYA3_jL-130" style="edgeStyle=orthogonalEdgeStyle;rounded=0;orthogonalLoop=1;jettySize=auto;html=1;entryX=0.5;entryY=0;entryDx=0;entryDy=0;entryPerimeter=0;" edge="1" parent="WIyWlLk6GJQsqaUBKTNV-1" source="Qc7WhJj-bPQKoWYA3_jL-126" target="Qc7WhJj-bPQKoWYA3_jL-129">
          <mxGeometry relative="1" as="geometry" />
        </mxCell>
        <mxCell id="Qc7WhJj-bPQKoWYA3_jL-126" value="&lt;span style=&quot;font-size: 11px; text-align: center;&quot;&gt;1.Calibrar balanza&lt;/span&gt;&lt;br style=&quot;border-color: var(--border-color); font-size: 11px; text-align: center;&quot;&gt;&lt;span style=&quot;font-size: 11px; text-align: center;&quot;&gt;2.Ver historial de alimentación de bovino&lt;br&gt;&lt;/span&gt;3_Otros&lt;br style=&quot;border-color: var(--border-color); font-size: 11px; text-align: center;&quot;&gt;&lt;span style=&quot;font-size: 11px; text-align: center;&quot;&gt;4_Salir&lt;/span&gt;&lt;div style=&quot;text-align: center;&quot;&gt;&lt;/div&gt;" style="rounded=1;whiteSpace=wrap;html=1;absoluteArcSize=1;arcSize=14;strokeWidth=2;align=left;" vertex="1" parent="WIyWlLk6GJQsqaUBKTNV-1">
          <mxGeometry x="380" y="485" width="100" height="100" as="geometry" />
        </mxCell>
        <mxCell id="Qc7WhJj-bPQKoWYA3_jL-174" value="Sí" style="edgeStyle=orthogonalEdgeStyle;rounded=0;orthogonalLoop=1;jettySize=auto;html=1;" edge="1" parent="WIyWlLk6GJQsqaUBKTNV-1" source="Qc7WhJj-bPQKoWYA3_jL-129">
          <mxGeometry relative="1" as="geometry">
            <mxPoint x="430" y="789.9999999999998" as="targetPoint" />
          </mxGeometry>
        </mxCell>
        <mxCell id="Qc7WhJj-bPQKoWYA3_jL-179" value="No" style="edgeStyle=orthogonalEdgeStyle;rounded=0;orthogonalLoop=1;jettySize=auto;html=1;" edge="1" parent="WIyWlLk6GJQsqaUBKTNV-1" source="Qc7WhJj-bPQKoWYA3_jL-129" target="Qc7WhJj-bPQKoWYA3_jL-178">
          <mxGeometry x="-0.6667" relative="1" as="geometry">
            <mxPoint x="-1" as="offset" />
          </mxGeometry>
        </mxCell>
        <mxCell id="Qc7WhJj-bPQKoWYA3_jL-129" value="Calibrar balanza?" style="strokeWidth=2;html=1;shape=mxgraph.flowchart.decision;whiteSpace=wrap;" vertex="1" parent="WIyWlLk6GJQsqaUBKTNV-1">
          <mxGeometry x="380" y="640" width="100" height="100" as="geometry" />
        </mxCell>
        <mxCell id="Qc7WhJj-bPQKoWYA3_jL-131" value="&lt;div style=&quot;text-align: center;&quot;&gt;&lt;span style=&quot;background-color: initial;&quot;&gt;Aviso!&lt;/span&gt;&lt;/div&gt;Calibrando&amp;nbsp; balanza" style="strokeWidth=2;html=1;shape=mxgraph.flowchart.document2;whiteSpace=wrap;size=0.25;align=left;" vertex="1" parent="WIyWlLk6GJQsqaUBKTNV-1">
          <mxGeometry x="210" y="1090" width="110" height="60" as="geometry" />
        </mxCell>
        <mxCell id="Qc7WhJj-bPQKoWYA3_jL-172" value="" style="edgeStyle=orthogonalEdgeStyle;rounded=0;orthogonalLoop=1;jettySize=auto;html=1;" edge="1" parent="WIyWlLk6GJQsqaUBKTNV-1" source="Qc7WhJj-bPQKoWYA3_jL-132" target="Qc7WhJj-bPQKoWYA3_jL-131">
          <mxGeometry relative="1" as="geometry" />
        </mxCell>
        <mxCell id="Qc7WhJj-bPQKoWYA3_jL-175" style="edgeStyle=orthogonalEdgeStyle;rounded=0;orthogonalLoop=1;jettySize=auto;html=1;entryX=0.5;entryY=0;entryDx=0;entryDy=0;entryPerimeter=0;" edge="1" parent="WIyWlLk6GJQsqaUBKTNV-1" source="Qc7WhJj-bPQKoWYA3_jL-132" target="Qc7WhJj-bPQKoWYA3_jL-96">
          <mxGeometry relative="1" as="geometry" />
        </mxCell>
        <mxCell id="Qc7WhJj-bPQKoWYA3_jL-132" value="1_Resetear valor&lt;br&gt;2_Medir balanza&lt;br&gt;valor medido = 0kg" style="rounded=1;whiteSpace=wrap;html=1;absoluteArcSize=1;arcSize=14;strokeWidth=2;align=left;" vertex="1" parent="WIyWlLk6GJQsqaUBKTNV-1">
          <mxGeometry x="380" y="1070" width="100" height="100" as="geometry" />
        </mxCell>
        <mxCell id="Qc7WhJj-bPQKoWYA3_jL-141" value="" style="edgeStyle=orthogonalEdgeStyle;rounded=0;orthogonalLoop=1;jettySize=auto;html=1;" edge="1" parent="WIyWlLk6GJQsqaUBKTNV-1" source="Qc7WhJj-bPQKoWYA3_jL-136" target="Qc7WhJj-bPQKoWYA3_jL-72">
          <mxGeometry relative="1" as="geometry" />
        </mxCell>
        <mxCell id="Qc7WhJj-bPQKoWYA3_jL-144" value="" style="edgeStyle=orthogonalEdgeStyle;rounded=0;orthogonalLoop=1;jettySize=auto;html=1;" edge="1" parent="WIyWlLk6GJQsqaUBKTNV-1" source="Qc7WhJj-bPQKoWYA3_jL-136" target="Qc7WhJj-bPQKoWYA3_jL-143">
          <mxGeometry relative="1" as="geometry" />
        </mxCell>
        <mxCell id="Qc7WhJj-bPQKoWYA3_jL-136" value="Esperar un tiempo t=1h&lt;br&gt;" style="rounded=1;whiteSpace=wrap;html=1;absoluteArcSize=1;arcSize=14;strokeWidth=2;align=left;" vertex="1" parent="WIyWlLk6GJQsqaUBKTNV-1">
          <mxGeometry x="551" y="1470" width="100" height="100" as="geometry" />
        </mxCell>
        <mxCell id="Qc7WhJj-bPQKoWYA3_jL-138" value="&lt;div style=&quot;text-align: center;&quot;&gt;&lt;span style=&quot;background-color: initial;&quot;&gt;Aviso!&lt;/span&gt;&lt;/div&gt;Cargando alimento" style="strokeWidth=2;html=1;shape=mxgraph.flowchart.document2;whiteSpace=wrap;size=0.25;align=left;" vertex="1" parent="WIyWlLk6GJQsqaUBKTNV-1">
          <mxGeometry x="740" y="1300" width="106.5" height="60" as="geometry" />
        </mxCell>
        <mxCell id="Qc7WhJj-bPQKoWYA3_jL-161" value="" style="edgeStyle=orthogonalEdgeStyle;rounded=0;orthogonalLoop=1;jettySize=auto;html=1;" edge="1" parent="WIyWlLk6GJQsqaUBKTNV-1" source="Qc7WhJj-bPQKoWYA3_jL-140" target="Qc7WhJj-bPQKoWYA3_jL-159">
          <mxGeometry relative="1" as="geometry" />
        </mxCell>
        <mxCell id="Qc7WhJj-bPQKoWYA3_jL-140" value="Aviso!&lt;br&gt;Bovino Presente" style="strokeWidth=2;html=1;shape=mxgraph.flowchart.document2;whiteSpace=wrap;size=0.25;align=center;" vertex="1" parent="WIyWlLk6GJQsqaUBKTNV-1">
          <mxGeometry x="752.5" y="1650" width="100" height="60" as="geometry" />
        </mxCell>
        <mxCell id="Qc7WhJj-bPQKoWYA3_jL-143" value="Aviso!&lt;br&gt;En espera" style="strokeWidth=2;html=1;shape=mxgraph.flowchart.document2;whiteSpace=wrap;size=0.25;align=center;" vertex="1" parent="WIyWlLk6GJQsqaUBKTNV-1">
          <mxGeometry x="746.5" y="1490" width="100" height="60" as="geometry" />
        </mxCell>
        <mxCell id="Qc7WhJj-bPQKoWYA3_jL-151" value="" style="edgeStyle=orthogonalEdgeStyle;rounded=0;orthogonalLoop=1;jettySize=auto;html=1;" edge="1" parent="WIyWlLk6GJQsqaUBKTNV-1" source="Qc7WhJj-bPQKoWYA3_jL-147" target="Qc7WhJj-bPQKoWYA3_jL-149">
          <mxGeometry relative="1" as="geometry" />
        </mxCell>
        <mxCell id="Qc7WhJj-bPQKoWYA3_jL-147" value="1_Reconocer NºX bovino&lt;br&gt;2_Leer tiempo transcurrido de la última vez que comió" style="rounded=1;whiteSpace=wrap;html=1;absoluteArcSize=1;arcSize=14;strokeWidth=2;align=left;" vertex="1" parent="WIyWlLk6GJQsqaUBKTNV-1">
          <mxGeometry x="551" y="940" width="100" height="100" as="geometry" />
        </mxCell>
        <mxCell id="Qc7WhJj-bPQKoWYA3_jL-150" value="No" style="edgeStyle=orthogonalEdgeStyle;rounded=0;orthogonalLoop=1;jettySize=auto;html=1;" edge="1" parent="WIyWlLk6GJQsqaUBKTNV-1" source="Qc7WhJj-bPQKoWYA3_jL-149" target="Qc7WhJj-bPQKoWYA3_jL-92">
          <mxGeometry relative="1" as="geometry" />
        </mxCell>
        <mxCell id="Qc7WhJj-bPQKoWYA3_jL-156" value="Sí" style="edgeStyle=orthogonalEdgeStyle;rounded=0;orthogonalLoop=1;jettySize=auto;html=1;entryX=0;entryY=0.5;entryDx=0;entryDy=0;entryPerimeter=0;" edge="1" parent="WIyWlLk6GJQsqaUBKTNV-1" source="Qc7WhJj-bPQKoWYA3_jL-149" target="Qc7WhJj-bPQKoWYA3_jL-155">
          <mxGeometry relative="1" as="geometry" />
        </mxCell>
        <mxCell id="Qc7WhJj-bPQKoWYA3_jL-149" value="El bovino NºX comió en t&amp;lt;24hs?" style="strokeWidth=2;html=1;shape=mxgraph.flowchart.decision;whiteSpace=wrap;" vertex="1" parent="WIyWlLk6GJQsqaUBKTNV-1">
          <mxGeometry x="551" y="1080" width="100" height="100" as="geometry" />
        </mxCell>
        <mxCell id="Qc7WhJj-bPQKoWYA3_jL-167" style="edgeStyle=orthogonalEdgeStyle;rounded=0;orthogonalLoop=1;jettySize=auto;html=1;entryX=0.771;entryY=0.785;entryDx=0;entryDy=0;entryPerimeter=0;" edge="1" parent="WIyWlLk6GJQsqaUBKTNV-1" source="Qc7WhJj-bPQKoWYA3_jL-152" target="Qc7WhJj-bPQKoWYA3_jL-118">
          <mxGeometry relative="1" as="geometry">
            <Array as="points">
              <mxPoint x="1060" y="280" />
            </Array>
          </mxGeometry>
        </mxCell>
        <mxCell id="Qc7WhJj-bPQKoWYA3_jL-152" value="" style="shape=waypoint;sketch=0;size=6;pointerEvents=1;points=[];fillColor=default;resizable=0;rotatable=0;perimeter=centerPerimeter;snapToPoint=1;strokeWidth=2;" vertex="1" parent="WIyWlLk6GJQsqaUBKTNV-1">
          <mxGeometry x="1050" y="823.86" width="20" height="20" as="geometry" />
        </mxCell>
        <mxCell id="Qc7WhJj-bPQKoWYA3_jL-165" style="edgeStyle=orthogonalEdgeStyle;rounded=0;orthogonalLoop=1;jettySize=auto;html=1;entryX=0.174;entryY=0.403;entryDx=0;entryDy=0;entryPerimeter=0;" edge="1" parent="WIyWlLk6GJQsqaUBKTNV-1" source="Qc7WhJj-bPQKoWYA3_jL-155" target="Qc7WhJj-bPQKoWYA3_jL-163">
          <mxGeometry relative="1" as="geometry" />
        </mxCell>
        <mxCell id="Qc7WhJj-bPQKoWYA3_jL-155" value="Aviso!&lt;br&gt;Bovino Presente" style="strokeWidth=2;html=1;shape=mxgraph.flowchart.document2;whiteSpace=wrap;size=0.25;align=center;" vertex="1" parent="WIyWlLk6GJQsqaUBKTNV-1">
          <mxGeometry x="746.5" y="1100" width="100" height="60" as="geometry" />
        </mxCell>
        <mxCell id="Qc7WhJj-bPQKoWYA3_jL-160" style="edgeStyle=orthogonalEdgeStyle;rounded=0;orthogonalLoop=1;jettySize=auto;html=1;entryX=0.5;entryY=0;entryDx=0;entryDy=0;entryPerimeter=0;" edge="1" parent="WIyWlLk6GJQsqaUBKTNV-1" source="Qc7WhJj-bPQKoWYA3_jL-159" target="Qc7WhJj-bPQKoWYA3_jL-72">
          <mxGeometry relative="1" as="geometry">
            <Array as="points">
              <mxPoint x="970" y="1610" />
              <mxPoint x="601" y="1610" />
            </Array>
          </mxGeometry>
        </mxCell>
        <mxCell id="Qc7WhJj-bPQKoWYA3_jL-159" value="Esperar un tiempo t=20min" style="rounded=1;whiteSpace=wrap;html=1;absoluteArcSize=1;arcSize=14;strokeWidth=2;align=left;" vertex="1" parent="WIyWlLk6GJQsqaUBKTNV-1">
          <mxGeometry x="920" y="1630" width="100" height="100" as="geometry" />
        </mxCell>
        <mxCell id="Qc7WhJj-bPQKoWYA3_jL-166" style="edgeStyle=orthogonalEdgeStyle;rounded=0;orthogonalLoop=1;jettySize=auto;html=1;entryX=0.438;entryY=1.151;entryDx=0;entryDy=0;entryPerimeter=0;" edge="1" parent="WIyWlLk6GJQsqaUBKTNV-1" source="Qc7WhJj-bPQKoWYA3_jL-163" target="Qc7WhJj-bPQKoWYA3_jL-152">
          <mxGeometry relative="1" as="geometry" />
        </mxCell>
        <mxCell id="Qc7WhJj-bPQKoWYA3_jL-163" value="" style="shape=waypoint;sketch=0;size=6;pointerEvents=1;points=[];fillColor=default;resizable=0;rotatable=0;perimeter=centerPerimeter;snapToPoint=1;strokeWidth=2;" vertex="1" parent="WIyWlLk6GJQsqaUBKTNV-1">
          <mxGeometry x="1050" y="1120" width="20" height="20" as="geometry" />
        </mxCell>
        <mxCell id="Qc7WhJj-bPQKoWYA3_jL-192" style="edgeStyle=orthogonalEdgeStyle;rounded=0;orthogonalLoop=1;jettySize=auto;html=1;entryX=0.909;entryY=0.903;entryDx=0;entryDy=0;entryPerimeter=0;" edge="1" parent="WIyWlLk6GJQsqaUBKTNV-1" source="Qc7WhJj-bPQKoWYA3_jL-176" target="Qc7WhJj-bPQKoWYA3_jL-190">
          <mxGeometry relative="1" as="geometry" />
        </mxCell>
        <mxCell id="Qc7WhJj-bPQKoWYA3_jL-176" value="" style="shape=waypoint;sketch=0;size=6;pointerEvents=1;points=[];fillColor=default;resizable=0;rotatable=0;perimeter=centerPerimeter;snapToPoint=1;strokeWidth=2;" vertex="1" parent="WIyWlLk6GJQsqaUBKTNV-1">
          <mxGeometry x="130" y="1330" width="20" height="20" as="geometry" />
        </mxCell>
        <mxCell id="Qc7WhJj-bPQKoWYA3_jL-181" value="Sí" style="edgeStyle=orthogonalEdgeStyle;rounded=0;orthogonalLoop=1;jettySize=auto;html=1;" edge="1" parent="WIyWlLk6GJQsqaUBKTNV-1" source="Qc7WhJj-bPQKoWYA3_jL-178">
          <mxGeometry relative="1" as="geometry">
            <mxPoint x="130" y="789.9999999999998" as="targetPoint" />
          </mxGeometry>
        </mxCell>
        <mxCell id="Qc7WhJj-bPQKoWYA3_jL-193" value="No" style="edgeStyle=orthogonalEdgeStyle;rounded=0;orthogonalLoop=1;jettySize=auto;html=1;entryX=1;entryY=0.5;entryDx=0;entryDy=0;entryPerimeter=0;" edge="1" parent="WIyWlLk6GJQsqaUBKTNV-1" source="Qc7WhJj-bPQKoWYA3_jL-178" target="Qc7WhJj-bPQKoWYA3_jL-185">
          <mxGeometry relative="1" as="geometry" />
        </mxCell>
        <mxCell id="Qc7WhJj-bPQKoWYA3_jL-178" value="Ver Historial?" style="strokeWidth=2;html=1;shape=mxgraph.flowchart.decision;whiteSpace=wrap;" vertex="1" parent="WIyWlLk6GJQsqaUBKTNV-1">
          <mxGeometry x="80" y="640" width="100" height="100" as="geometry" />
        </mxCell>
        <mxCell id="Qc7WhJj-bPQKoWYA3_jL-182" style="edgeStyle=orthogonalEdgeStyle;rounded=0;orthogonalLoop=1;jettySize=auto;html=1;entryX=1;entryY=0.5;entryDx=0;entryDy=0;entryPerimeter=0;" edge="1" parent="WIyWlLk6GJQsqaUBKTNV-1" source="Qc7WhJj-bPQKoWYA3_jL-180" target="Qc7WhJj-bPQKoWYA3_jL-101">
          <mxGeometry relative="1" as="geometry" />
        </mxCell>
        <mxCell id="Qc7WhJj-bPQKoWYA3_jL-184" style="edgeStyle=orthogonalEdgeStyle;rounded=0;orthogonalLoop=1;jettySize=auto;html=1;entryX=1.115;entryY=0.256;entryDx=0;entryDy=0;entryPerimeter=0;" edge="1" parent="WIyWlLk6GJQsqaUBKTNV-1" source="Qc7WhJj-bPQKoWYA3_jL-180" target="Qc7WhJj-bPQKoWYA3_jL-176">
          <mxGeometry relative="1" as="geometry" />
        </mxCell>
        <mxCell id="Qc7WhJj-bPQKoWYA3_jL-180" value="1_Acceder a los datos de memoria" style="rounded=1;whiteSpace=wrap;html=1;absoluteArcSize=1;arcSize=14;strokeWidth=2;align=left;" vertex="1" parent="WIyWlLk6GJQsqaUBKTNV-1">
          <mxGeometry x="90" y="793.86" width="100" height="100" as="geometry" />
        </mxCell>
        <mxCell id="Qc7WhJj-bPQKoWYA3_jL-189" value="Sí" style="edgeStyle=orthogonalEdgeStyle;rounded=0;orthogonalLoop=1;jettySize=auto;html=1;entryX=0.5;entryY=0;entryDx=0;entryDy=0;" edge="1" parent="WIyWlLk6GJQsqaUBKTNV-1" source="Qc7WhJj-bPQKoWYA3_jL-185" target="Qc7WhJj-bPQKoWYA3_jL-188">
          <mxGeometry relative="1" as="geometry" />
        </mxCell>
        <mxCell id="Qc7WhJj-bPQKoWYA3_jL-196" value="No" style="edgeStyle=orthogonalEdgeStyle;rounded=0;orthogonalLoop=1;jettySize=auto;html=1;entryX=0.909;entryY=0.697;entryDx=0;entryDy=0;entryPerimeter=0;" edge="1" parent="WIyWlLk6GJQsqaUBKTNV-1" source="Qc7WhJj-bPQKoWYA3_jL-185" target="Qc7WhJj-bPQKoWYA3_jL-195">
          <mxGeometry relative="1" as="geometry" />
        </mxCell>
        <mxCell id="Qc7WhJj-bPQKoWYA3_jL-185" value="Otros?" style="strokeWidth=2;html=1;shape=mxgraph.flowchart.decision;whiteSpace=wrap;" vertex="1" parent="WIyWlLk6GJQsqaUBKTNV-1">
          <mxGeometry x="-240" y="640" width="100" height="100" as="geometry" />
        </mxCell>
        <mxCell id="Qc7WhJj-bPQKoWYA3_jL-191" style="edgeStyle=orthogonalEdgeStyle;rounded=0;orthogonalLoop=1;jettySize=auto;html=1;entryX=0.556;entryY=0.197;entryDx=0;entryDy=0;entryPerimeter=0;" edge="1" parent="WIyWlLk6GJQsqaUBKTNV-1" source="Qc7WhJj-bPQKoWYA3_jL-188" target="Qc7WhJj-bPQKoWYA3_jL-190">
          <mxGeometry relative="1" as="geometry" />
        </mxCell>
        <mxCell id="Qc7WhJj-bPQKoWYA3_jL-188" value="XXXXX" style="rounded=1;whiteSpace=wrap;html=1;absoluteArcSize=1;arcSize=14;strokeWidth=2;" vertex="1" parent="WIyWlLk6GJQsqaUBKTNV-1">
          <mxGeometry x="-240" y="793.86" width="100" height="100" as="geometry" />
        </mxCell>
        <mxCell id="Qc7WhJj-bPQKoWYA3_jL-197" style="edgeStyle=orthogonalEdgeStyle;rounded=0;orthogonalLoop=1;jettySize=auto;html=1;" edge="1" parent="WIyWlLk6GJQsqaUBKTNV-1" source="Qc7WhJj-bPQKoWYA3_jL-190" target="Qc7WhJj-bPQKoWYA3_jL-195">
          <mxGeometry relative="1" as="geometry" />
        </mxCell>
        <mxCell id="Qc7WhJj-bPQKoWYA3_jL-190" value="" style="shape=waypoint;sketch=0;size=6;pointerEvents=1;points=[];fillColor=default;resizable=0;rotatable=0;perimeter=centerPerimeter;snapToPoint=1;strokeWidth=2;" vertex="1" parent="WIyWlLk6GJQsqaUBKTNV-1">
          <mxGeometry x="-200" y="1330" width="20" height="20" as="geometry" />
        </mxCell>
        <mxCell id="Qc7WhJj-bPQKoWYA3_jL-198" style="edgeStyle=orthogonalEdgeStyle;rounded=0;orthogonalLoop=1;jettySize=auto;html=1;entryX=0.712;entryY=1.021;entryDx=0;entryDy=0;entryPerimeter=0;" edge="1" parent="WIyWlLk6GJQsqaUBKTNV-1" source="Qc7WhJj-bPQKoWYA3_jL-195" target="Qc7WhJj-bPQKoWYA3_jL-118">
          <mxGeometry relative="1" as="geometry">
            <Array as="points">
              <mxPoint x="-330" y="280" />
            </Array>
          </mxGeometry>
        </mxCell>
        <mxCell id="Qc7WhJj-bPQKoWYA3_jL-195" value="" style="shape=waypoint;sketch=0;size=6;pointerEvents=1;points=[];fillColor=default;resizable=0;rotatable=0;perimeter=centerPerimeter;snapToPoint=1;strokeWidth=2;" vertex="1" parent="WIyWlLk6GJQsqaUBKTNV-1">
          <mxGeometry x="-340" y="680" width="20" height="20" as="geometry" />
        </mxCell>
      </root>
    </mxGraphModel>
  </diagram>
</mxfile>
